<svg id="Layer_1" data-name="Layer 1" xmlns="http://www.w3.org/2000/svg" viewBox="0 0 143.181 161.344">
  <title>Google-drive-trash-sign</title>
  <path d="M897.188,485.638h-8.779V468.152h44.628v-8.824h53.589v8.628h44.965v17.7h-8.811v4.431q0,55.487-.01,110.972c0,9.787-4.875,16.508-13.775,19a17.845,17.845,0,0,1-4.734.578q-44.389.054-88.778.019c-10.545-.012-18.189-7.887-18.271-18.871-.092-12.2-.024-24.394-.025-36.591q0-37.641,0-75.282Zm107.785,117.267V485.932H915V602.905Z" transform="translate(-888.409 -459.328)"/>
  <path d="M950.594,584.549H933.425V504.238h17.169Z" transform="translate(-888.409 -459.328)"/>
  <path d="M986.6,584.555h-17.18V504.233H986.6Z" transform="translate(-888.409 -459.328)"/>
</svg>
