<svg id="Layer_1" data-name="Layer 1" xmlns="http://www.w3.org/2000/svg" viewBox="0 0 99.858 100.023">
  <title>Google-drive-recent-sign</title>
  <path d="M910.105,539.747c-.778-26.481,22.671-49.855,49.946-49.758,25.138.089,50.047,20.355,49.877,50.254a49.75,49.75,0,0,1-50.058,49.769C930.366,589.976,909.112,564.974,910.105,539.747Zm49.684-40.588a40.593,40.593,0,0,0-40.656,40.827c-.063,22.85,18.146,40.867,41.247,40.81,22.6-.055,40.415-18.326,40.361-41.394C1000.689,517.12,982.364,499.111,959.789,499.159Z" transform="translate(-910.071 -489.988)"/>
  <path d="M954.583,528.251c0-5.19.051-10.381-.023-15.57-.032-2.3.927-3.247,3.214-3.231,8.677.063,7.326-.617,7.395,6.987.059,6.587.206,13.183-.071,19.76a6.78,6.78,0,0,0,3.569,6.824c3.215,1.994,6.168,4.406,9.291,6.556,1.858,1.279,2.053,2.644.886,4.551-4.091,6.686-4.052,6.7-10.361,2.048-3.773-2.784-7.514-5.616-11.361-8.294a5.278,5.278,0,0,1-2.589-4.959C954.69,538.037,954.581,533.142,954.583,528.251Z" transform="translate(-910.071 -489.988)"/>
</svg>
