<svg id="Layer_1" data-name="Layer 1" xmlns="http://www.w3.org/2000/svg" viewBox="0 0 161.608 179.534">
  <title>Google-drive-mydrive-sign</title>
  <path d="M1040.8,539.957q0,35.247-.015,70.493c-.011,6.813-2.294,12.8-8.428,16.171a23.6,23.6,0,0,1-10.813,2.787c-40.994.189-81.99.145-122.985.1-11.823-.013-19.313-7.473-19.325-19.3q-.071-70.342,0-140.685c.012-11.93,7.663-19.485,19.568-19.492q61.194-.033,122.387,0c12.042.007,19.6,7.647,19.607,19.735Q1040.812,504.861,1040.8,539.957Zm-80.654-72.3q-29.537,0-59.073,0c-4.189,0-4.2,0-4.2,4.051q0,54.724,0,109.449c0,4.1.033,4.168,4.215,4.17q59.073.016,118.145,0c3.914,0,4.068-.181,4.068-4.046q.009-54.875.058-109.748c.007-2.945-.728-3.968-3.845-3.946C999.725,467.727,979.933,467.66,960.143,467.661Zm.209,134.969h-25.2c-11.7,0-23.4.063-35.092-.049-2.521-.024-3.51.816-3.2,3.277a14.565,14.565,0,0,1,.011,1.8c.006,4.342.006,4.344,4.428,4.344q58.339,0,116.678-.008c5.743,0,5.3.79,5.323-5.267.012-4.087-.008-4.093-4.162-4.094Q989.746,602.628,960.352,602.63Z" transform="translate(-879.196 -450.014)"/>
  <path d="M960.014,566.01c-8.291,0-16.583-.052-24.874.021-4.4.039-7.605-1.595-9.738-5.6-2.672-5.018-5.587-9.908-8.48-14.805a9.848,9.848,0,0,1-.032-10.725q12.5-21.645,24.859-43.368c2.135-3.76,5.128-5.632,9.471-5.565,5.693.088,11.388.039,17.081.016a9.415,9.415,0,0,1,8.842,5.02q12.853,21.962,25.908,43.8a9.886,9.886,0,0,1,.086,10.746c-2.895,5.011-5.808,10.012-8.658,15.048a10.075,10.075,0,0,1-9.592,5.429C976.6,565.957,968.305,566.01,960.014,566.01Zm16.721-25.586L960,511.384l-17.123,29.04Z" transform="translate(-879.196 -450.014)"/>
</svg>
