<svg id="Layer_1" data-name="Layer 1" xmlns="http://www.w3.org/2000/svg" viewBox="0 0 197.804 143.499">
  <title>Google-drive-shared-sign</title>
  <path d="M1004.975,612.9H861.914c-.175-.233-.394-.388-.395-.543-.043-8.7-.362-17.4-.014-26.085.35-8.737,5.661-14.589,12.571-19.288,10.958-7.452,23.356-11.093,36.1-13.85,26.97-5.834,52.571-1.42,76.965,10.772,4.286,2.142,8.059,5.5,11.674,8.739a18.4,18.4,0,0,1,6.106,13.581C1005.123,595.005,1004.975,603.793,1004.975,612.9Zm-17.906-17.663c1.069-6.319.741-11.758-5.6-14.842-2.151-1.046-4.168-2.4-6.374-3.3-18.221-7.429-36.958-11.362-56.685-7.825-11.722,2.1-23.208,4.985-33.5,11.323-6.2,3.818-7.493,7.4-5.368,14.64Z" transform="translate(-861.344 -469.399)"/>
  <path d="M969,505.344c-.1,19.405-16.515,35.728-35.865,35.655-19.427-.072-35.746-16.417-35.734-35.79.011-19.514,16.6-36,36.018-35.808C952.886,469.6,969.1,485.969,969,505.344Zm-17.616.125a18.185,18.185,0,1,0-18.527,17.912A18.083,18.083,0,0,0,951.383,505.469Z" transform="translate(-861.344 -469.399)"/>
  <path d="M976.108,471.611c14.226-5.254,30.858.036,39.934,12.605,9.533,13.2,9.1,30.38-1.089,43.4-9.011,11.518-25.856,16.345-38.7,11.052C991.193,516.376,991.51,494.089,976.108,471.611Z" transform="translate(-861.344 -469.399)"/>
  <path d="M1023.39,612.806c0-7.782-.307-15.373.064-22.93.754-15.338-5.726-26.96-17.591-36.048a2.954,2.954,0,0,1-1.138-1.663c2.155.382,4.332.671,6.462,1.161,12.392,2.848,24.513,6.408,35.206,13.65,8.422,5.7,13.338,13.119,12.7,23.81-.433,7.249-.083,14.545-.083,22.02Z" transform="translate(-861.344 -469.399)"/>
</svg>
