<svg id="Layer_1" data-name="Layer 1" xmlns="http://www.w3.org/2000/svg" viewBox="0 0 38.25 38.25">
  <title>Google-drive-priority-sign</title>
  <g>
    <path d="M957.241,547.436l-6.543-7.012,2.072-2.236,4.81,4.376,9.514-10,2.208,2.73Z" transform="translate(-940.875 -520.875)"/>
    <path d="M966.511,559.125H953.489a12.629,12.629,0,0,1-12.614-12.614V533.489a12.629,12.629,0,0,1,12.614-12.614h13.022a12.629,12.629,0,0,1,12.614,12.614v13.022A12.629,12.629,0,0,1,966.511,559.125Zm-13.022-35a9.375,9.375,0,0,0-9.364,9.364v13.022a9.375,9.375,0,0,0,9.364,9.364h13.022a9.375,9.375,0,0,0,9.364-9.364V533.489a9.375,9.375,0,0,0-9.364-9.364Z" transform="translate(-940.875 -520.875)"/>
  </g>
</svg>
