<svg id="Layer_1" data-name="Layer 1" xmlns="http://www.w3.org/2000/svg" viewBox="0 0 107.667 102.98">
  <title>Google-drive-starred-sign</title>
  <path d="M924.5,584.511c1.29-7.6,2.32-15.754,4.159-23.718,1.069-4.628-.037-7.512-3.531-10.568-5.933-5.19-11.36-10.958-17.024-16.459a5.827,5.827,0,0,1-1.511-6.583c.841-2.411,2.609-3.542,5.152-3.909,8.973-1.295,17.913-2.824,26.9-4.027,2.164-.29,3.084-1.367,3.911-3.074,3.7-7.636,7.506-15.224,11.184-22.871,1.3-2.706,2.982-4.808,6.227-4.792,3.21.016,4.951,2.025,6.261,4.759,3.713,7.744,7.575,15.417,11.321,23.145a4.368,4.368,0,0,0,3.766,2.8c8.983,1.226,17.921,2.768,26.895,4.064,2.675.386,4.426,1.578,5.275,4.15a5.935,5.935,0,0,1-1.758,6.536c-6.368,6.209-12.728,12.425-19.146,18.583a4.77,4.77,0,0,0-1.713,4.943c1.574,8.123,2.8,16.314,4.155,24.48a24.689,24.689,0,0,1,.345,2.674c.3,5.387-4.132,8.366-8.994,5.916q-11.9-6-23.669-12.264a5.214,5.214,0,0,0-5.535.072q-11.757,6.282-23.657,12.3C928.854,593.035,924.251,590.081,924.5,584.511Zm10.06-4.673c1.764-.841,2.747-1.266,3.691-1.766,6.087-3.226,12.236-6.344,18.212-9.763a6.464,6.464,0,0,1,7.2.059c5.989,3.4,12.121,6.543,18.207,9.769.935.5,1.93.879,3.387,1.534-.107-1.384-.107-2.247-.249-3.086q-1.85-10.928-3.753-21.847a5.468,5.468,0,0,1,1.756-5.571c5.286-4.875,10.357-9.984,15.5-15.018.732-.716,1.37-1.528,2.342-2.621-1.307-.349-2.043-.626-2.8-.736-7.4-1.071-14.8-2.172-22.223-3.128a5.122,5.122,0,0,1-4.469-3.287c-3-6.422-6.212-12.74-9.354-19.093-.508-1.028-1.076-2.027-1.953-3.669-.953,1.684-1.617,2.739-2.167,3.851-3.188,6.441-6.407,12.869-9.481,19.365a4.1,4.1,0,0,1-3.515,2.692c-4.751.6-9.484,1.334-14.221,2.035-3.7.547-7.391,1.125-11.726,1.788,1.2,1.3,1.886,2.119,2.643,2.864,5.2,5.119,10.489,10.145,15.545,15.4A6.2,6.2,0,0,1,938.61,554c-.427,4.261-1.346,8.472-2.028,12.71C935.922,570.8,935.317,574.908,934.56,579.838Z" transform="translate(-906.166 -488.51)"/>
</svg>
