<svg id="Layer_1" data-name="Layer 1" xmlns="http://www.w3.org/2000/svg" viewBox="0 0 215.188 143.468">
  <title>Google-drive-storage-sign</title>
  <path d="M964.356,611.713c-19,0-37.992.061-56.987-.023-11.439-.051-22.156-2.752-31.611-9.49-13.791-9.829-21.925-22.99-23.177-40.044-1.381-18.809,5.433-34.224,19.924-46.148a48.546,48.546,0,0,1,24.038-10.772,7.437,7.437,0,0,0,5.723-4c12.869-21.067,31.9-32.4,56.406-32.948,32.474-.72,59.141,21.149,66.473,51.254.475,1.95,1.059,2.932,3.342,3.294,19.328,3.069,33.557,15.711,37.816,33.322a44.662,44.662,0,0,1-36.01,54.811,59.673,59.673,0,0,1-9.55.717C1001.947,611.746,983.151,611.713,964.356,611.713Zm-52.348-89.994c-2.451,0-4.743-.015-7.035,0-17.718.136-33.477,14.631-35.149,32.322a36.237,36.237,0,0,0,36.428,40.046c7.2.018,14.4,0,21.6,0,31.9,0,63.793.044,95.689-.026a26.866,26.866,0,0,0,26.6-26.563c.13-15.933-11.685-27.747-27.8-27.788-4.064-.01-8.129,0-12.464,0,.134-13.632-2.958-25.934-11.716-36.247a48.591,48.591,0,0,0-33.63-17.6C941.431,483.774,919.684,497.4,912.008,521.719Z" transform="translate(-852.406 -468.266)"/>
</svg>
