<svg id="Layer_1" data-name="Layer 1" xmlns="http://www.w3.org/2000/svg" xmlns:xlink="http://www.w3.org/1999/xlink" viewBox="0 0 175.84 118.75"><defs><style>.cls-1{fill:url(#linear-gradient);}</style><linearGradient id="linear-gradient" x1="917.67" y1="479.72" x2="1048.99" y2="348.39" gradientUnits="userSpaceOnUse"><stop offset="0" stop-color="#0071bc"/><stop offset="0.5" stop-color="#662d91"/><stop offset="1" stop-color="#d4145a"/></linearGradient></defs><title>generic-favicon</title><path class="cls-1" d="M953,451.69c.34-4.76,4.93-26,8.33-42.14l8.49-38.22h35.34l10.7,46.89a337.12,337.12,0,0,1,5.1,33.47h.85c.68-7.65,3.57-25.32,5.1-32.45l5.77-25.83h-9.34V371.33h48.59v22.08h-9.35l-25.31,96.67H997l-10.2-40.43c-1.53-5.78-3.39-15.8-4.24-21.07h-.68c-.68,5.1-2.89,15.8-4.08,20.73l-10.36,40.77H928L905.6,393.41h-9.51V371.33h56.07v22.08H942.3l4.42,24.81c1.87,8.15,4.76,28.37,5.44,33.47Z" transform="translate(-896.09 -371.33)"/></svg>